<svg xmlns="http://www.w3.org/2000/svg" xmlns:xlink="http://www.w3.org/1999/xlink" id="Layer_1" x="0px" y="0px" viewBox="0 0 478.56 159.28" style="enable-background:new 0 0 478.56 159.28;" xml:space="preserve">
<style type="text/css">
	.st0{fill:#B49A00;}
	.st1{fill:#E1D355;}
	.st2{fill:#ECE49A;}
	.st3{fill:#23282D;}
	.st4{fill:#FFFFFF;}
	.st5{clip-path:url(#SVGID_2_);fill:url(#SVGID_3_);}
</style>
<g>
	<path class="st0" d="M80.08,111.08c-0.01,0-0.03,0-0.04,0c-0.01,0-0.02,0-0.04,0c-0.62,0-1.25-0.02-1.86-0.05   c-25.4-1.02-45.75-21.99-45.75-47.64c0-9.01,2.51-17.45,6.88-24.65C28.8,49.23,22.32,63.69,22.32,79.64   c0,31.93,25.98,57.91,57.91,57.91c31.93,0,57.91-25.98,57.91-57.91c0-16.33-6.81-31.09-17.71-41.63   c4.64,7.36,7.34,16.06,7.34,25.38C127.77,89.69,106.37,111.08,80.08,111.08"></path>
	<path class="st1" d="M38.41,63.39c0,9.52,3.22,18.3,8.61,25.33c-1.63-4.07-2.53-8.5-2.53-13.14C44.5,56,60.42,40.07,80,40.07   c19.58,0,35.51,15.93,35.51,35.51c0,4.79-0.96,9.35-2.68,13.53c5.58-7.09,8.92-16.01,8.92-25.71c0-22.95-18.65-41.62-41.59-41.66   c-0.77,0-1.53,0.03-2.29,0.06C55.91,22.95,38.41,41.16,38.41,63.39"></path>
	<path class="st0" d="M109.48,75.58c0-16.25-13.22-29.48-29.48-29.48c-16.25,0-29.48,13.22-29.48,29.48   c0,15.73,12.39,28.63,27.93,29.44c0.53,0.02,1.06,0.04,1.59,0.04C96.28,105.04,109.48,91.82,109.48,75.58"></path>
	<path class="st1" d="M15.6,100.52c-0.81-2.47-3.48-3.85-6.09-3.14c-1.25,0.34-2.29,1.15-2.92,2.3c-0.66,1.2-0.8,2.61-0.38,3.97   l0,0.01l0.01,0.01c0.44,1.32,1.37,2.38,2.61,2.96c1.21,0.57,2.55,0.62,3.78,0.14C15.11,105.8,16.44,103.09,15.6,100.52"></path>
	<path class="st1" d="M144.48,58.59l0.03,0.09c0.81,2.47,3.48,3.85,6.1,3.14c1.25-0.34,2.29-1.16,2.92-2.3   c0.66-1.2,0.8-2.61,0.37-3.99c-0.44-1.33-1.37-2.38-2.61-2.96c-1.21-0.57-2.55-0.62-3.78-0.14C145,53.39,143.67,56.1,144.48,58.59    M145.79,58.26L145.79,58.26L145.79,58.26L145.79,58.26z"></path>
	<path class="st1" d="M15.61,58.64c0.8-2.47-0.56-5.16-3.08-6.12c-1.21-0.46-2.53-0.41-3.71,0.14c-1.24,0.58-2.18,1.64-2.64,2.98   l-0.01,0.01l0,0.02C5.75,57,5.88,58.39,6.55,59.6c0.64,1.17,1.7,2,2.97,2.34C12.11,62.62,14.78,61.21,15.61,58.64"></path>
	<path class="st1" d="M144.53,100.47l-0.03,0.09c-0.8,2.47,0.56,5.16,3.08,6.12c1.21,0.46,2.53,0.41,3.72-0.14   c1.24-0.58,2.18-1.64,2.65-3.01c0.42-1.33,0.29-2.73-0.37-3.93c-0.65-1.17-1.7-2-2.98-2.33C148,96.57,145.33,97.98,144.53,100.47    M145.78,100.97L145.78,100.97L145.78,100.97L145.78,100.97z"></path>
	<path class="st1" d="M40.09,24.87c2.09-1.53,2.57-4.51,1.09-6.77c-0.71-1.08-1.81-1.81-3.09-2.06c-1.35-0.26-2.73,0.05-3.89,0.87   l-0.01,0.01l-0.01,0.01c-1.12,0.83-1.83,2.04-2,3.4c-0.16,1.32,0.21,2.61,1.04,3.63C34.92,26.05,37.91,26.46,40.09,24.87"></path>
	<path class="st1" d="M120.09,134.27l-0.07,0.05c-2.1,1.53-2.57,4.51-1.09,6.77c0.71,1.09,1.81,1.82,3.09,2.06   c1.35,0.25,2.73-0.05,3.91-0.89c1.12-0.83,1.83-2.04,2-3.41c0.16-1.32-0.21-2.62-1.04-3.64   C125.19,133.14,122.2,132.72,120.09,134.27 M120.82,135.41L120.82,135.41L120.82,135.41L120.82,135.41z"></path>
	<path class="st1" d="M80.18,11.83c2.6,0,4.74-2.11,4.88-4.81c0.07-1.3-0.39-2.53-1.28-3.49c-0.94-1.01-2.23-1.57-3.65-1.6l-0.02,0   l-0.01,0c-1.4,0.01-2.68,0.56-3.62,1.56c-0.92,0.97-1.38,2.23-1.31,3.54C75.32,9.72,77.48,11.83,80.18,11.83"></path>
	<path class="st1" d="M80.02,147.44l-0.09,0c-2.6,0-4.74,2.12-4.88,4.82c-0.07,1.3,0.39,2.54,1.28,3.49c0.94,1,2.23,1.57,3.68,1.6   c1.4-0.01,2.68-0.56,3.63-1.57c0.92-0.97,1.38-2.23,1.31-3.55C84.8,149.55,82.64,147.44,80.02,147.44 M79.93,148.79L79.93,148.79   L79.93,148.79L79.93,148.79z"></path>
	<path class="st1" d="M120.04,24.88c2.1,1.53,5.08,1.08,6.78-1.02c0.82-1.01,1.18-2.27,1.02-3.57c-0.17-1.36-0.88-2.58-2.01-3.44   l-0.01-0.01l-0.01-0.01c-1.13-0.82-2.5-1.12-3.85-0.87c-1.31,0.25-2.43,0.99-3.14,2.1C117.34,20.31,117.86,23.29,120.04,24.88"></path>
	<path class="st1" d="M40.15,134.36l-0.07-0.05c-2.1-1.53-5.08-1.08-6.78,1.02c-0.82,1.01-1.18,2.28-1.02,3.57   c0.17,1.36,0.88,2.58,2.03,3.45c1.13,0.82,2.5,1.12,3.85,0.87c1.31-0.25,2.43-0.99,3.15-2.1C42.78,138.87,42.26,135.9,40.15,134.36    M39.28,135.4L39.28,135.4L39.28,135.4L39.28,135.4z"></path>
	<path class="st2" d="M135.51,44.89c0.76,0.25,1.54,0.38,2.34,0.38c1.46,0,2.88-0.42,4.12-1.22c1.68-1.08,2.85-2.84,3.21-4.81   c0.38-2.03-0.09-4.08-1.33-5.78c-0.95-1.28-2.24-2.22-3.73-2.71c-2.33-0.75-4.97-0.27-6.86,1.26c-3.11,2.51-3.74,7.11-1.42,10.22   C132.75,43.48,134.02,44.4,135.51,44.89"></path>
	<path class="st2" d="M153.78,72.62c-0.73-0.24-1.49-0.36-2.26-0.36l-0.39,0.01c-4.01,0.21-7.22,3.57-7.15,7.42   c0,3.21,2.07,6.05,5.16,7.06c0.64,0.21,1.3,0.33,1.96,0.37c0.13,0.01,0.26,0.01,0.39,0.01c1.87,0,3.65-0.71,5.02-2   c1.5-1.42,2.33-3.35,2.33-5.5C158.8,76.41,156.76,73.59,153.78,72.62"></path>
	<path class="st2" d="M141.91,115.34c-1.21-0.79-2.62-1.21-4.08-1.21c-2.35,0-4.59,1.1-6.04,2.99c-1.15,1.56-1.62,3.5-1.33,5.4   c0.26,1.92,1.23,3.65,2.75,4.86c0.7,0.56,1.47,0.98,2.31,1.25c0.74,0.24,1.51,0.37,2.29,0.37c0.33,0,0.67-0.02,1.05-0.07   c1.93-0.3,3.72-1.38,4.87-2.95c1.26-1.65,1.75-3.68,1.4-5.73C144.78,118.23,143.61,116.44,141.91,115.34"></path>
	<path class="st2" d="M99.8,140.36c-1.85,0.59-3.37,1.88-4.24,3.58c-0.93,1.71-1.15,3.68-0.64,5.56c0.54,1.96,1.82,3.57,3.7,4.59   c0.34,0.17,0.69,0.32,1.06,0.44c0.76,0.25,1.54,0.38,2.34,0.38c0.78,0,1.56-0.12,2.26-0.35c1.98-0.6,3.58-1.95,4.49-3.82   c0.9-1.84,0.99-3.97,0.27-5.86C107.67,141.32,103.69,139.18,99.8,140.36"></path>
	<path class="st2" d="M60.26,140.34c-0.73-0.24-1.48-0.36-2.25-0.36c-3.05,0-5.86,1.96-6.98,4.87c-0.71,1.85-0.64,3.86,0.19,5.66   c0.86,1.86,2.42,3.26,4.23,3.88l0.51,0.17c0.68,0.2,1.38,0.29,2.08,0.29c1.23,0,2.46-0.31,3.55-0.91c1.78-0.97,3.04-2.57,3.56-4.5   C66.19,145.58,64.05,141.58,60.26,140.34"></path>
	<path class="st2" d="M24.95,114.39c-2.15-0.7-4.55-0.39-6.46,0.85c-1.67,1.08-2.85,2.84-3.21,4.82c-0.38,2.03,0.09,4.08,1.33,5.78   c0.95,1.28,2.24,2.22,3.73,2.7c0.74,0.24,1.51,0.37,2.29,0.37c1.65,0,3.28-0.57,4.58-1.62c3.1-2.51,3.74-7.11,1.42-10.22   C27.71,115.8,26.44,114.88,24.95,114.39"></path>
	<path class="st2" d="M11.31,72.53c-0.64-0.21-1.3-0.33-1.97-0.37c-2.01-0.12-3.95,0.61-5.41,2c-1.5,1.42-2.32,3.35-2.32,5.49   c0.05,3.22,2.09,6.03,5.07,7.01c0.73,0.24,1.49,0.36,2.25,0.36c0.13,0,0.27,0,0.4-0.01c4.01-0.21,7.22-3.56,7.15-7.42   C16.47,76.38,14.4,73.54,11.31,72.53"></path>
	<path class="st2" d="M27.25,31.91c-1.3-1.04-2.94-1.62-4.61-1.62c-0.33,0-0.66,0.02-1.05,0.07c-1.93,0.3-3.72,1.38-4.87,2.94   c-1.26,1.64-1.75,3.68-1.4,5.72c0.35,2.02,1.53,3.81,3.22,4.9c0.55,0.36,1.15,0.65,1.79,0.86c0.75,0.25,1.53,0.37,2.32,0.37   c2.32,0,4.56-1.11,6.02-3.01c1.15-1.56,1.62-3.49,1.33-5.39C29.73,34.83,28.76,33.11,27.25,31.91"></path>
	<path class="st2" d="M61.43,5.18c-1.73-0.88-3.89-1.04-5.68-0.47c-1.98,0.6-3.57,1.95-4.49,3.82c-0.9,1.83-1,3.96-0.27,5.85   c0.82,2.14,2.53,3.76,4.68,4.47c0.76,0.25,1.54,0.37,2.33,0.37h0c0.73,0,1.46-0.11,2.22-0.33c1.85-0.58,3.37-1.87,4.25-3.57   c0.93-1.71,1.15-3.68,0.64-5.56C64.57,7.8,63.29,6.19,61.43,5.18"></path>
	<path class="st2" d="M104.38,4.76c-1.95-0.63-4.1-0.43-5.88,0.54c-1.77,0.97-3.04,2.57-3.56,4.5c-1.04,3.86,1.07,7.85,4.89,9.1   c0.73,0.24,1.48,0.36,2.24,0.36c3.05,0,5.85-1.96,6.98-4.87c0.71-1.85,0.64-3.86-0.19-5.66C108.01,6.87,106.43,5.47,104.38,4.76"></path>
	<path class="st0" d="M190.22,37.17c3.52,0,6.54,0.72,9.06,2.14c2.52,1.43,4.43,3.46,5.73,6.09c1.29,2.63,1.94,5.72,1.94,9.27   c0,2.62-0.36,5.01-1.07,7.15c-0.71,2.15-1.77,4-3.19,5.58c-1.42,1.57-3.16,2.78-5.23,3.61c-2.07,0.83-4.44,1.25-7.11,1.25   c-2.65,0-5.03-0.43-7.13-1.28c-2.1-0.86-3.85-2.06-5.25-3.62c-1.4-1.56-2.47-3.43-3.18-5.62c-0.71-2.19-1.08-4.56-1.08-7.1   c0-2.61,0.37-5,1.12-7.17c0.75-2.18,1.83-4.03,3.25-5.55c1.42-1.53,3.15-2.7,5.18-3.51C185.32,37.58,187.63,37.17,190.22,37.17    M199.99,54.62c0-2.48-0.4-4.63-1.2-6.46c-0.8-1.82-1.95-3.19-3.44-4.13c-1.49-0.93-3.2-1.4-5.12-1.4c-1.37,0-2.64,0.26-3.8,0.77   c-1.17,0.52-2.17,1.27-3.01,2.26c-0.84,0.99-1.5,2.25-1.99,3.78c-0.49,1.53-0.73,3.26-0.73,5.17c0,1.93,0.24,3.67,0.73,5.23   c0.49,1.56,1.17,2.85,2.06,3.88c0.89,1.03,1.9,1.79,3.05,2.3c1.15,0.51,2.41,0.76,3.78,0.76c1.76,0,3.37-0.44,4.85-1.32   c1.47-0.88,2.65-2.24,3.52-4.07C199.55,59.56,199.99,57.3,199.99,54.62"></path>
	<path class="st0" d="M220.72,41.29l13.21,19.99V41.11c0-1.31,0.28-2.29,0.84-2.95c0.56-0.65,1.32-0.98,2.28-0.98   c0.99,0,1.77,0.33,2.34,0.98c0.57,0.66,0.86,1.64,0.86,2.95v26.68c0,2.98-1.23,4.47-3.7,4.47c-0.62,0-1.17-0.09-1.67-0.27   c-0.49-0.18-0.96-0.46-1.39-0.85c-0.43-0.38-0.83-0.83-1.2-1.35c-0.37-0.52-0.74-1.04-1.11-1.58l-12.89-19.76v19.88   c0,1.29-0.3,2.27-0.9,2.94c-0.6,0.66-1.37,1-2.31,1c-0.97,0-1.75-0.33-2.34-1.01c-0.59-0.67-0.88-1.65-0.88-2.92V42.15   c0-1.11,0.12-1.98,0.37-2.62c0.29-0.69,0.78-1.26,1.46-1.7c0.68-0.44,1.41-0.66,2.2-0.66c0.62,0,1.15,0.1,1.59,0.3   c0.44,0.2,0.82,0.47,1.16,0.81c0.33,0.34,0.67,0.78,1.02,1.32C220,40.14,220.35,40.71,220.72,41.29"></path>
	<path class="st0" d="M267.52,42.47h-15.48v8.33h14.25c1.05,0,1.83,0.24,2.35,0.71c0.52,0.47,0.77,1.09,0.77,1.86   c0,0.77-0.25,1.4-0.76,1.89c-0.51,0.49-1.3,0.73-2.36,0.73h-14.25v10.86h16.01c1.08,0,1.89,0.25,2.44,0.75   c0.55,0.5,0.82,1.17,0.82,2c0,0.8-0.27,1.46-0.82,1.96c-0.55,0.5-1.36,0.75-2.44,0.75h-18.67c-1.5,0-2.57-0.33-3.23-0.99   c-0.66-0.67-0.98-1.74-0.98-3.22v-26.7c0-0.99,0.15-1.79,0.44-2.42c0.3-0.62,0.75-1.08,1.38-1.36c0.62-0.29,1.42-0.43,2.39-0.43   h18.14c1.1,0,1.91,0.24,2.44,0.73c0.53,0.49,0.8,1.12,0.8,1.91c0,0.8-0.26,1.45-0.8,1.93C269.43,42.23,268.61,42.47,267.52,42.47"></path>
	<path class="st0" d="M194.13,92.43H180.6v8.68h11.31c1.05,0,1.83,0.24,2.35,0.7c0.52,0.47,0.77,1.1,0.77,1.89   c0,0.79-0.26,1.41-0.79,1.88c-0.52,0.46-1.3,0.69-2.34,0.69H180.6v11.76c0,1.42-0.32,2.47-0.96,3.16   c-0.64,0.69-1.46,1.03-2.46,1.03c-1.02,0-1.85-0.35-2.49-1.04c-0.64-0.69-0.96-1.74-0.96-3.15V91.35c0-0.99,0.15-1.79,0.44-2.42   c0.29-0.62,0.75-1.08,1.38-1.36c0.63-0.29,1.42-0.43,2.4-0.43h16.19c1.1,0,1.91,0.24,2.44,0.73c0.53,0.49,0.8,1.12,0.8,1.91   c0,0.8-0.27,1.45-0.8,1.93C196.04,92.19,195.23,92.43,194.13,92.43"></path>
	<path class="st0" d="M211.56,106.54h-2.41v11.48c0,1.44-0.32,2.49-0.95,3.17c-0.63,0.68-1.46,1.02-2.48,1.02   c-1.09,0-1.94-0.36-2.55-1.07c-0.6-0.71-0.9-1.75-0.9-3.12V91.34c0-1.48,0.33-2.55,1-3.22c0.66-0.66,1.74-0.99,3.22-0.99h11.17   c1.54,0,2.86,0.07,3.95,0.2c1.1,0.13,2.08,0.4,2.96,0.8c1.07,0.45,2.01,1.09,2.82,1.92c0.82,0.83,1.44,1.8,1.86,2.9   c0.43,1.1,0.64,2.27,0.64,3.5c0,2.53-0.71,4.55-2.14,6.06c-1.43,1.51-3.59,2.58-6.49,3.22c1.22,0.65,2.38,1.6,3.49,2.87   c1.11,1.27,2.1,2.61,2.97,4.04c0.87,1.43,1.94,3.3,2.43,4.44c0.49,1.15,0.73,1.94,0.73,2.37c0,0.45-0.14,0.89-0.43,1.33   c-0.29,0.44-0.67,0.79-1.17,1.04c-0.49,0.25-1.07,0.38-1.71,0.38c-0.77,0-1.42-0.18-1.95-0.55c-0.52-0.36-0.98-0.82-1.35-1.38   c-0.38-0.55-0.89-1.37-1.54-2.45l-3.15-5.16c-0.99-1.68-1.87-2.96-2.65-3.84c-0.78-0.88-1.57-1.48-2.37-1.8   C213.79,106.71,212.78,106.54,211.56,106.54 M215.5,92.29h-6.34v9.33h6.15c1.65,0,3.04-0.14,4.17-0.43   c1.13-0.28,1.99-0.77,2.58-1.46c0.59-0.69,0.89-1.63,0.89-2.84c0-0.94-0.24-1.77-0.72-2.49c-0.48-0.72-1.14-1.25-1.99-1.61   C219.44,92.46,217.86,92.29,215.5,92.29"></path>
	<path class="st0" d="M259.95,117.79l-1.62-4.26h-13.79l-1.62,4.35c-0.63,1.7-1.17,2.84-1.62,3.43c-0.45,0.59-1.18,0.89-2.2,0.89   c-0.86,0-1.63-0.32-2.29-0.95c-0.67-0.63-1-1.35-1-2.15c0-0.46,0.08-0.94,0.23-1.43c0.15-0.49,0.41-1.18,0.76-2.06l8.68-22.03   c0.25-0.63,0.54-1.39,0.89-2.28c0.35-0.89,0.72-1.62,1.11-2.21c0.39-0.58,0.91-1.06,1.55-1.42c0.64-0.36,1.43-0.54,2.37-0.54   c0.95,0,1.75,0.18,2.39,0.54c0.64,0.36,1.16,0.83,1.55,1.4c0.39,0.57,0.72,1.18,0.99,1.84c0.27,0.66,0.61,1.53,1.03,2.62   l8.86,21.89c0.7,1.67,1.04,2.88,1.04,3.63c0,0.79-0.33,1.51-0.98,2.16c-0.66,0.65-1.45,0.98-2.37,0.98c-0.54,0-1-0.1-1.39-0.29   c-0.39-0.19-0.71-0.45-0.97-0.79c-0.26-0.33-0.54-0.84-0.85-1.53C260.42,118.92,260.16,118.32,259.95,117.79 M246.34,108.37h10.13   l-5.11-14L246.34,108.37z"></path>
	<path class="st0" d="M297.51,92.8h-7.5v25.22c0,1.42-0.32,2.47-0.95,3.16c-0.63,0.69-1.45,1.03-2.45,1.03   c-1.02,0-1.85-0.35-2.49-1.04c-0.64-0.69-0.96-1.74-0.96-3.15V92.8h-7.5c-1.17,0-2.04-0.26-2.61-0.78   c-0.57-0.52-0.86-1.2-0.86-2.05c0-0.88,0.3-1.57,0.89-2.08c0.59-0.51,1.45-0.76,2.58-0.76h21.84c1.19,0,2.07,0.26,2.65,0.79   c0.58,0.52,0.87,1.21,0.87,2.06c0,0.85-0.3,1.53-0.88,2.05C299.56,92.54,298.68,92.8,297.51,92.8"></path>
	<path class="st0" d="M328.29,92.43h-15.48v8.33h14.25c1.05,0,1.83,0.24,2.35,0.71c0.52,0.47,0.77,1.09,0.77,1.86   c0,0.77-0.25,1.4-0.76,1.89c-0.51,0.49-1.3,0.73-2.36,0.73h-14.25v10.81h16.01c1.08,0,1.89,0.25,2.44,0.75   c0.55,0.5,0.82,1.17,0.82,2c0,0.8-0.27,1.46-0.82,1.96c-0.55,0.5-1.36,0.75-2.44,0.75h-18.67c-1.5,0-2.57-0.33-3.23-0.99   c-0.66-0.67-0.98-1.74-0.98-3.22V91.35c0-0.99,0.15-1.79,0.44-2.42c0.3-0.62,0.75-1.08,1.38-1.36c0.62-0.29,1.42-0.43,2.39-0.43   h18.14c1.1,0,1.91,0.24,2.44,0.73c0.53,0.49,0.8,1.12,0.8,1.91c0,0.8-0.26,1.45-0.8,1.93C330.2,92.19,329.39,92.43,328.29,92.43"></path>
	<path class="st0" d="M346.28,106.54h-2.41v11.48c0,1.44-0.32,2.49-0.95,3.17c-0.63,0.68-1.46,1.02-2.48,1.02   c-1.09,0-1.94-0.36-2.55-1.07c-0.6-0.71-0.9-1.75-0.9-3.12V91.34c0-1.48,0.33-2.55,1-3.22c0.66-0.66,1.74-0.99,3.22-0.99h11.18   c1.54,0,2.86,0.07,3.95,0.2c1.1,0.13,2.08,0.4,2.96,0.8c1.07,0.45,2.01,1.09,2.82,1.92c0.82,0.83,1.44,1.8,1.86,2.9   c0.42,1.1,0.64,2.27,0.64,3.5c0,2.53-0.71,4.55-2.14,6.06c-1.43,1.51-3.59,2.58-6.49,3.22c1.22,0.65,2.38,1.6,3.49,2.87   c1.11,1.27,2.1,2.61,2.98,4.04c0.87,1.43,1.95,3.3,2.44,4.44c0.49,1.15,0.73,1.94,0.73,2.37c0,0.45-0.14,0.89-0.43,1.33   c-0.29,0.44-0.67,0.79-1.17,1.04c-0.49,0.25-1.07,0.38-1.71,0.38c-0.77,0-1.42-0.18-1.95-0.55c-0.52-0.36-0.98-0.82-1.35-1.38   c-0.38-0.55-0.89-1.37-1.54-2.45l-3.16-5.16c-0.99-1.68-1.87-2.96-2.65-3.84c-0.78-0.88-1.57-1.48-2.37-1.8   C348.51,106.71,347.5,106.54,346.28,106.54 M350.21,92.29h-6.34v9.33h6.15c1.65,0,3.04-0.14,4.17-0.43   c1.13-0.28,1.99-0.77,2.58-1.46c0.59-0.69,0.89-1.63,0.89-2.84c0-0.94-0.24-1.77-0.72-2.49c-0.48-0.72-1.14-1.25-1.99-1.61   C354.15,92.46,352.57,92.29,350.21,92.29"></path>
	<path class="st0" d="M379.4,91.25l13.21,19.99V91.07c0-1.31,0.28-2.29,0.84-2.95c0.56-0.65,1.32-0.98,2.28-0.98   c0.99,0,1.77,0.33,2.34,0.98c0.57,0.66,0.85,1.64,0.85,2.95v26.68c0,2.98-1.23,4.47-3.7,4.47c-0.62,0-1.17-0.09-1.66-0.27   c-0.49-0.18-0.96-0.46-1.39-0.85c-0.43-0.38-0.83-0.84-1.2-1.35c-0.37-0.52-0.74-1.04-1.11-1.58L376.97,98.4v19.88   c0,1.29-0.3,2.27-0.9,2.94c-0.6,0.66-1.37,1-2.31,1c-0.97,0-1.75-0.34-2.34-1.01c-0.59-0.67-0.88-1.65-0.88-2.93V92.11   c0-1.11,0.12-1.98,0.37-2.61c0.29-0.69,0.78-1.26,1.46-1.7c0.68-0.44,1.41-0.66,2.2-0.66c0.62,0,1.15,0.1,1.59,0.3   c0.44,0.2,0.82,0.47,1.16,0.81c0.33,0.34,0.67,0.78,1.02,1.32C378.67,90.1,379.03,90.67,379.4,91.25"></path>
	<path class="st0" d="M403.85,118.02V91.3c0-1.39,0.31-2.43,0.95-3.12c0.63-0.7,1.45-1.04,2.45-1.04c1.03,0,1.87,0.34,2.51,1.03   c0.64,0.69,0.96,1.73,0.96,3.13v26.72c0,1.4-0.32,2.45-0.96,3.15c-0.64,0.7-1.48,1.04-2.51,1.04c-0.99,0-1.8-0.35-2.44-1.05   C404.16,120.45,403.85,119.41,403.85,118.02"></path>
	<path class="st0" d="M440.94,92.8h-7.5v25.22c0,1.42-0.32,2.47-0.95,3.16c-0.63,0.69-1.45,1.03-2.45,1.03   c-1.02,0-1.85-0.35-2.49-1.04c-0.64-0.69-0.96-1.74-0.96-3.15V92.8h-7.5c-1.17,0-2.04-0.26-2.61-0.78   c-0.57-0.52-0.86-1.2-0.86-2.05c0-0.88,0.3-1.57,0.89-2.08c0.59-0.51,1.45-0.76,2.58-0.76h21.84c1.19,0,2.07,0.26,2.65,0.79   c0.58,0.52,0.87,1.21,0.87,2.06c0,0.85-0.29,1.53-0.88,2.05C442.99,92.54,442.11,92.8,440.94,92.8"></path>
	<path class="st0" d="M459.64,118.02v-10.76l-8.28-12.84c-0.72-1.16-1.24-2.06-1.54-2.71c-0.3-0.65-0.45-1.21-0.45-1.69   c0-0.79,0.3-1.46,0.91-2.03c0.61-0.57,1.36-0.86,2.26-0.86c0.94,0,1.66,0.27,2.14,0.8c0.48,0.53,1.21,1.59,2.19,3.18l6.34,10.3   l6.41-10.3c0.39-0.63,0.71-1.16,0.97-1.6c0.26-0.43,0.55-0.84,0.87-1.22c0.32-0.38,0.67-0.67,1.05-0.87c0.39-0.2,0.86-0.3,1.41-0.3   c0.86,0,1.59,0.28,2.16,0.85c0.58,0.56,0.87,1.22,0.87,1.96c0,0.6-0.15,1.2-0.44,1.8c-0.29,0.6-0.79,1.43-1.5,2.5l-8.49,13.03   v10.76c0,1.4-0.32,2.45-0.97,3.15c-0.65,0.7-1.47,1.04-2.47,1.04c-1.02,0-1.84-0.34-2.48-1.03   C459.96,120.49,459.64,119.44,459.64,118.02"></path>
</g>
</svg>